{
  "accessors": [
    {
      "bufferView": 3,
      "componentType": 5126,
      "count": 2383,
      "max": [
        0.437826007604599,
        0.7899061441421509,
        0.1516231894493103
      ],
      "min": [
        -0.43784356117248535,
        8.761882781982422e-06,
        -0.5777536630630493
      ],
      "type": "VEC3"
    },
    {
      "bufferView": 3,
      "byteOffset": 28596,
      "componentType": 5126,
      "count": 2383,
      "max": [
        0.9999866485595703,
        0.9999513626098633,
        0.9997997879981995
      ],
      "min": [
        -0.9999513626098633,
        -0.9999866485595703,
        -0.9999847412109375
      ],
      "type": "VEC3"
    },
    {
      "bufferView": 2,
      "componentType": 5126,
      "count": 2383,
      "max": [
        0.9916579723358154,
        0.9839867949485779
      ],
      "min": [
        0.010710000991821289,
        0.01262778788805008
      ],
      "type": "VEC2"
    },
    {
      "bufferView": 1,
      "componentType": 5125,
      "count": 10992,
      "type": "SCALAR"
    },
    {
      "bufferView": 3,
      "byteOffset": 57192,
      "componentType": 5126,
      "count": 4222,
      "max": [
        0.257051944732666,
        1.2311904430389404,
        0.22874164581298828
      ],
      "min": [
        -0.2570599317550659,
        0.7733291387557983,
        -0.2052297294139862
      ],
      "type": "VEC3"
    },
    {
      "bufferView": 3,
      "byteOffset": 107856,
      "componentType": 5126,
      "count": 4222,
      "max": [
        0.9999741315841675,
        0.9999922513961792,
        0.9999232292175293
      ],
      "min": [
        -0.9999922513961792,
        -0.9999741315841675,
        -0.9999846816062927
      ],
      "type": "VEC3"
    },
    {
      "bufferView": 2,
      "byteOffset": 19064,
      "componentType": 5126,
      "count": 4222,
      "max": [
        0.9961619973182678,
        0.9922870397567749
      ],
      "min": [
        0.00707348994910717,
        0.005135999992489815
      ],
      "type": "VEC2"
    },
    {
      "bufferView": 1,
      "byteOffset": 43968,
      "componentType": 5125,
      "count": 22242,
      "type": "SCALAR"
    },
    {
      "bufferView": 3,
      "byteOffset": 158520,
      "componentType": 5126,
      "count": 2012,
      "max": [
        0.15744639933109283,
        0.7558316588401794,
        0.15461640059947968
      ],
      "min": [
        -0.15744535624980927,
        -0.00022348761558532715,
        -0.06482953578233719
      ],
      "type": "VEC3"
    },
    {
      "bufferView": 3,
      "byteOffset": 182664,
      "componentType": 5126,
      "count": 2012,
      "max": [
        0.9998125433921814,
        0.9995245933532715,
        0.9996229410171509
      ],
      "min": [
        -0.9995245933532715,
        -0.9999932050704956,
        -0.999796450138092
      ],
      "type": "VEC3"
    },
    {
      "bufferView": 2,
      "byteOffset": 52840,
      "componentType": 5126,
      "count": 2012,
      "max": [
        1.9919893741607666,
        0.988384485244751
      ],
      "min": [
        0.00805145874619484,
        0.0070817917585372925
      ],
      "type": "VEC2"
    },
    {
      "bufferView": 1,
      "byteOffset": 132936,
      "componentType": 5125,
      "count": 9174,
      "type": "SCALAR"
    },
    {
      "bufferView": 5,
      "componentType": 5126,
      "count": 120,
      "max": [
        1.0,
        1.5612511283791264e-15,
        8.271806125530277e-23,
        0.0,
        1.3010426069826053e-15,
        1.0,
        1.4210854715202004e-12,
        0.0,
        3.697785493223493e-28,
        1.4210854715202004e-12,
        1.0,
        0.0,
        0.4084581732749939,
        0.0,
        0.4649527668952942,
        1.0
      ],
      "min": [
        1.0,
        -1.3010426069826053e-15,
        -4.484155085839415e-44,
        0.0,
        -1.5612511283791264e-15,
        1.0,
        -1.4210854715202004e-12,
        0.0,
        -8.271806125530277e-23,
        -1.4210854715202004e-12,
        1.0,
        0.0,
        -0.4084584414958954,
        -1.0969599485397339,
        -0.20264336466789246,
        1.0
      ],
      "type": "MAT4"
    },
    {
      "bufferView": 0,
      "componentType": 5123,
      "count": 2383,
      "type": "VEC4"
    },
    {
      "bufferView": 4,
      "componentType": 5126,
      "count": 2383,
      "max": [
        1.0,
        0.4838709533214569,
        0.32258063554763794,
        0.19354838132858276
      ],
      "min": [
        0.32258063554763794,
        0.0,
        0.0,
        0.0
      ],
      "type": "VEC4"
    },
    {
      "bufferView": 0,
      "byteOffset": 19064,
      "componentType": 5123,
      "count": 4222,
      "type": "VEC4"
    },
    {
      "bufferView": 4,
      "byteOffset": 38128,
      "componentType": 5126,
      "count": 4222,
      "max": [
        1.0,
        0.4838709533214569,
        0.3225806653499603,
        0.22580644488334656
      ],
      "min": [
        0.25806450843811035,
        0.0,
        0.0,
        0.0
      ],
      "type": "VEC4"
    },
    {
      "bufferView": 0,
      "byteOffset": 52840,
      "componentType": 5123,
      "count": 2012,
      "type": "VEC4"
    },
    {
      "bufferView": 4,
      "byteOffset": 105680,
      "componentType": 5126,
      "count": 2012,
      "max": [
        1.0,
        0.4838709533214569,
        0.29032260179519653,
        0.19354838132858276
      ],
      "min": [
        0.32258063554763794,
        0.0,
        0.0,
        0.0
      ],
      "type": "VEC4"
    }
  ],
  "asset": {
    "extras": {
      "author": "Soiableewj9 (https://sketchfab.com/Soiableewj9)",
      "license": "CC-BY-4.0 (http://creativecommons.org/licenses/by/4.0/)",
      "source": "https://sketchfab.com/3d-models/angela-talking-tom-town-dfe9a18d7cd74f60a729b1f47ac1a1d5",
      "title": "Angela - Talking Tom Town"
    },
    "generator": "Sketchfab-16.59.0",
    "version": "2.0"
  },
  "bufferViews": [
    {
      "buffer": 0,
      "byteLength": 68936,
      "byteStride": 8,
      "name": "shortBufferViews",
      "target": 34962
    },
    {
      "buffer": 0,
      "byteLength": 169632,
      "byteOffset": 68936,
      "name": "floatBufferViews",
      "target": 34963
    },
    {
      "buffer": 0,
      "byteLength": 68936,
      "byteOffset": 238568,
      "byteStride": 8,
      "name": "floatBufferViews",
      "target": 34962
    },
    {
      "buffer": 0,
      "byteLength": 206808,
      "byteOffset": 307504,
      "byteStride": 12,
      "name": "floatBufferViews",
      "target": 34962
    },
    {
      "buffer": 0,
      "byteLength": 137872,
      "byteOffset": 514312,
      "byteStride": 16,
      "name": "floatBufferViews",
      "target": 34962
    },
    {
      "buffer": 0,
      "byteLength": 7680,
      "byteOffset": 652184,
      "name": "floatBufferViews"
    }
  ],
  "buffers": [
    {
      "byteLength": 659864,
      "uri": "scene.bin"
    }
  ],
  "images": [
    {
      "uri": "textures/Characters-Angela-AngelaBody_baseColor.png"
    },
    {
      "uri": "textures/Characters-Angela-AngelaHead_baseColor.png"
    },
    {
      "uri": "textures/Outfits-AngelaDefault_baseColor.png"
    }
  ],
  "materials": [
    {
      "doubleSided": true,
      "name": "Characters-Angela-AngelaBody",
      "pbrMetallicRoughness": {
        "baseColorTexture": {
          "index": 0
        },
        "metallicFactor": 0.0,
        "roughnessFactor": 0.9577051494623774
      }
    },
    {
      "doubleSided": true,
      "name": "Characters-Angela-AngelaHead",
      "pbrMetallicRoughness": {
        "baseColorTexture": {
          "index": 1
        },
        "metallicFactor": 0.0,
        "roughnessFactor": 0.9577051494623774
      }
    },
    {
      "doubleSided": true,
      "name": "Outfits-AngelaDefault",
      "pbrMetallicRoughness": {
        "baseColorTexture": {
          "index": 2
        },
        "metallicFactor": 0.0,
        "roughnessFactor": 0.9577051494623774
      }
    }
  ],
  "meshes": [
    {
      "name": "AngelaBody_Characters-Angela-AngelaBody_0",
      "primitives": [
        {
          "attributes": {
            "JOINTS_0": 13,
            "NORMAL": 1,
            "POSITION": 0,
            "TEXCOORD_0": 2,
            "WEIGHTS_0": 14
          },
          "indices": 3,
          "material": 0,
          "mode": 4
        }
      ]
    },
    {
      "name": "AngelaHead_Characters-Angela-AngelaHead_0",
      "primitives": [
        {
          "attributes": {
            "JOINTS_0": 15,
            "NORMAL": 5,
            "POSITION": 4,
            "TEXCOORD_0": 6,
            "WEIGHTS_0": 16
          },
          "indices": 7,
          "material": 1,
          "mode": 4
        }
      ]
    },
    {
      "name": "AngelaDefault_Outfits-AngelaDefault_0",
      "primitives": [
        {
          "attributes": {
            "JOINTS_0": 17,
            "NORMAL": 9,
            "POSITION": 8,
            "TEXCOORD_0": 10,
            "WEIGHTS_0": 18
          },
          "indices": 11,
          "material": 2,
          "mode": 4
        }
      ]
    }
  ],
  "nodes": [
    {
      "children": [
        1
      ],
      "matrix": [
        1.0,
        0.0,
        0.0,
        0.0,
        0.0,
        2.220446049250313e-16,
        -1.0,
        0.0,
        0.0,
        1.0,
        2.220446049250313e-16,
        0.0,
        0.0,
        0.0,
        0.0,
        1.0
      ],
      "name": "Sketchfab_model"
    },
    {
      "children": [
        2
      ],
      "matrix": [
        0.009999999776482582,
        0.0,
        0.0,
        0.0,
        0.0,
        0.0,
        0.009999999776482582,
        0.0,
        0.0,
        -0.009999999776482582,
        0.0,
        0.0,
        0.0,
        0.0,
        0.0,
        1.0
      ],
      "name": "Characters-Angela-Rig_RIG (merge).fbx"
    },
    {
      "children": [
        3
      ],
      "name": "RootNode"
    },
    {
      "children": [
        4
      ],
      "name": "Characters-Angela-Rig_RIG (merge)"
    },
    {
      "children": [
        5
      ],
      "name": "Characters-Angela-Rig_RIG"
    },
    {
      "children": [
        6
      ],
      "name": "C_skin_joints__SET"
    },
    {
      "children": [
        7
      ],
      "name": "c_root_uJnt"
    },
    {
      "children": [
        8,
        128,
        129,
        130
      ],
      "name": "Object_7"
    },
    {
      "children": [
        9
      ],
      "name": "_rootJoint"
    },
    {
      "children": [
        10,
        101,
        102,
        105,
        116
      ],
      "name": "c_spine_hip_uJnt_02",
      "rotation": [
        -1.4387845995439703e-39,
        5.551115652521375e-16,
        2.220446049250313e-16,
        1.0
      ],
      "translation": [
        0.0,
        0.4398455023765564,
        0.04337318241596222
      ]
    },
    {
      "children": [
        11,
        100
      ],
      "name": "c_spine_00_uJnt_03",
      "rotation": [
        -1.4387845995439703e-39,
        5.551115652521375e-16,
        2.220446049250313e-16,
        1.0
      ],
      "translation": [
        0.0,
        0.09903290867805481,
        0.0
      ]
    },
    {
      "children": [
        12,
        62,
        63,
        81
      ],
      "name": "c_spine_chest_uJnt_04",
      "rotation": [
        -1.4387845995439703e-39,
        5.551115652521375e-16,
        2.220446049250313e-16,
        1.0
      ],
      "translation": [
        0.0,
        0.09903290867805481,
        0.0
      ]
    },
    {
      "children": [
        13
      ],
      "name": "c_neck_uJnt_05",
      "rotation": [
        0.0,
        -0.0,
        -4.203895392974451e-45,
        1.0
      ],
      "translation": [
        0.0,
        0.10923860967159271,
        -0.016987847164273262
      ]
    },
    {
      "children": [
        14,
        33,
        56,
        57,
        58,
        59,
        60,
        61
      ],
      "name": "c_head_uJnt_06",
      "rotation": [
        0.0,
        -0.0,
        -4.203895392974451e-45,
        1.0
      ],
      "translation": [
        9.860761315262648e-32,
        0.0935300812125206,
        -0.02234533429145813
      ]
    },
    {
      "children": [
        15,
        19,
        20,
        21,
        22,
        23,
        24,
        25,
        26,
        27,
        28,
        29,
        30,
        31,
        32
      ],
      "name": "c_headBottom_uJnt_07",
      "rotation": [
        0.0,
        -0.0,
        -4.203895392974451e-45,
        1.0
      ],
      "translation": [
        -9.860761315262648e-32,
        0.06407906115055084,
        0.017127221450209618
      ]
    },
    {
      "children": [
        16,
        17,
        18
      ],
      "name": "c_jaw_uJnt_00",
      "rotation": [
        0.0,
        -0.0,
        -4.203895392974451e-45,
        1.0
      ],
      "translation": [
        -9.860761315262648e-32,
        0.038487326353788376,
        0.02308078296482563
      ]
    },
    {
      "name": "c_bottomTeeth_uJnt_01",
      "rotation": [
        0.0,
        -0.0,
        -4.203895392974451e-45,
        1.0
      ],
      "translation": [
        9.860761315262648e-32,
        -0.08762282878160477,
        0.08885118365287781
      ]
    },
    {
      "name": "c_chin_uJnt_08",
      "rotation": [
        0.0,
        -0.0,
        -4.203895392974451e-45,
        1.0
      ],
      "translation": [
        0.0,
        -0.13660895824432373,
        0.11836805194616318
      ]
    },
    {
      "name": "c_tongue_uJnt_09",
      "rotation": [
        2.0816681711721685e-17,
        -0.0,
        -4.203895392974451e-45,
        1.0
      ],
      "translation": [
        1.9721522630525295e-31,
        -0.08476600795984268,
        0.08910097926855087
      ]
    },
    {
      "name": "c_lips00_uJnt_010",
      "rotation": [
        0.0,
        -0.0,
        -4.203895392974451e-45,
        1.0
      ],
      "translation": [
        0.05609219893813133,
        -0.030128857120871544,
        0.16634872555732727
      ]
    },
    {
      "name": "c_lips01_uJnt_011",
      "rotation": [
        0.0,
        -0.0,
        -4.203895392974451e-45,
        1.0
      ],
      "translation": [
        0.049369025975465775,
        -0.029662853106856346,
        0.16929738223552704
      ]
    },
    {
      "name": "c_lips02_uJnt_012",
      "rotation": [
        0.0,
        -0.0,
        -4.203895392974451e-45,
        1.0
      ],
      "translation": [
        0.03439490497112274,
        -0.029749829322099686,
        0.17753225564956665
      ]
    },
    {
      "name": "c_lips03_uJnt_013",
      "rotation": [
        0.0,
        -0.0,
        -4.203895392974451e-45,
        1.0
      ],
      "translation": [
        0.0,
        -0.02828780747950077,
        0.1811523735523224
      ]
    },
    {
      "name": "c_lips04_uJnt_014",
      "rotation": [
        0.0,
        -0.0,
        -4.203895392974451e-45,
        1.0
      ],
      "translation": [
        -0.03439490124583244,
        -0.02975005842745304,
        0.17753177881240845
      ]
    },
    {
      "name": "c_lips05_uJnt_015",
      "rotation": [
        0.0,
        -0.0,
        -4.203895392974451e-45,
        1.0
      ],
      "translation": [
        -0.049368999898433685,
        -0.0296630822122097,
        0.16929776966571808
      ]
    },
    {
      "name": "c_lips06_uJnt_016",
      "rotation": [
        0.0,
        -0.0,
        -4.203895392974451e-45,
        1.0
      ],
      "translation": [
        -0.05609219893813133,
        -0.0301290862262249,
        0.16634878516197205
      ]
    },
    {
      "name": "c_lips07_uJnt_017",
      "rotation": [
        0.0,
        -0.0,
        -4.203895392974451e-45,
        1.0
      ],
      "translation": [
        -0.049368999898433685,
        -0.030460050329566002,
        0.16929776966571808
      ]
    },
    {
      "name": "c_lips08_uJnt_018",
      "rotation": [
        0.0,
        -0.0,
        -4.203895392974451e-45,
        1.0
      ],
      "translation": [
        -0.03461649641394615,
        -0.03066406026482582,
        0.17753177881240845
      ]
    },
    {
      "name": "c_lips09_uJnt_019",
      "rotation": [
        0.0,
        -0.0,
        -4.203895392974451e-45,
        1.0
      ],
      "translation": [
        0.0,
        -0.030494915321469307,
        0.1814761459827423
      ]
    },
    {
      "name": "c_lips10_uJnt_020",
      "rotation": [
        0.0,
        -0.0,
        -4.203895392974451e-45,
        1.0
      ],
      "translation": [
        0.034616488963365555,
        -0.030664287507534027,
        0.17753225564956665
      ]
    },
    {
      "name": "c_lips11_uJnt_021",
      "rotation": [
        0.0,
        -0.0,
        -4.203895392974451e-45,
        1.0
      ],
      "translation": [
        0.04936901479959488,
        -0.030460506677627563,
        0.16929741203784943
      ]
    },
    {
      "name": "l_frownCorr_uJnt_022",
      "rotation": [
        -1.1102230246251565e-16,
        -8.500145032286355e-17,
        1.3877787807814457e-17,
        1.0
      ],
      "translation": [
        0.0949331521987915,
        -0.07317840307950974,
        0.12792791426181793
      ]
    },
    {
      "name": "r_frownCorr_uJnt_023",
      "rotation": [
        -5.898059818321144e-17,
        -2.7755575615628914e-17,
        -1.0408340855860843e-17,
        1.0
      ],
      "translation": [
        -0.0949331521987915,
        -0.07317840307950974,
        0.12792791426181793
      ]
    },
    {
      "children": [
        34,
        35,
        37,
        38,
        39,
        40,
        41,
        42,
        43,
        44,
        46,
        47,
        48,
        49,
        50,
        51,
        52,
        54
      ],
      "name": "c_headTop_uJnt_024",
      "rotation": [
        0.0,
        -0.0,
        -4.203895392974451e-45,
        1.0
      ],
      "translation": [
        0.0,
        0.10214705020189285,
        0.0028968837577849627
      ]
    },
    {
      "name": "l_ear_uJnt_025",
      "rotation": [
        -3.469446951953614e-18,
        2.688821387764051e-17,
        5.616167253474913e-17,
        1.0
      ],
      "translation": [
        0.16715820133686066,
        0.1467180848121643,
        -0.05952552333474159
      ]
    },
    {
      "children": [
        36
      ],
      "name": "l_eye00_uJnt_026",
      "rotation": [
        -8.792201992499638e-19,
        -6.9378351127231605e-18,
        -2.168404344971009e-19,
        1.0
      ],
      "translation": [
        0.0889170691370964,
        0.03959200158715248,
        0.041555412113666534
      ]
    },
    {
      "name": "l_eye_pupil00_uJnt_027",
      "rotation": [
        -8.707498697774207e-19,
        6.939529178617669e-18,
        -5.421010862427522e-20,
        1.0
      ],
      "translation": [
        0.00212517729960382,
        -0.0007164764101617038,
        0.08242423832416534
      ]
    },
    {
      "name": "l_eyebrow_in_uJnt_028",
      "rotation": [
        3.469446951953614e-18,
        -5.551115123125783e-17,
        6.245003851772015e-17,
        1.0
      ],
      "translation": [
        0.07974685728549957,
        0.1541326344013214,
        0.14297811686992645
      ]
    },
    {
      "name": "l_eyebrow_out_uJnt_029",
      "rotation": [
        1.3877787807814457e-17,
        1.1102230246251565e-16,
        -1.0408340855860843e-17,
        1.0
      ],
      "translation": [
        0.14734598994255066,
        0.14443856477737427,
        0.09917264431715012
      ]
    },
    {
      "name": "l_eyelid_bottom00_uJnt_030",
      "rotation": [
        -6.938893903907228e-18,
        -8.673617379884035e-19,
        -2.688821387764051e-17,
        1.0
      ],
      "translation": [
        0.13059312105178833,
        0.0035301416646689177,
        0.12246913462877274
      ]
    },
    {
      "name": "l_eyelid_top00_corr_uJnt_031",
      "rotation": [
        1.0408340855860843e-17,
        1.3010426069826053e-18,
        -1.691355389077387e-17,
        1.0
      ],
      "translation": [
        0.1006382405757904,
        0.10604890435934067,
        0.12047792226076126
      ]
    },
    {
      "name": "l_eyelid_top00_uJnt_032",
      "rotation": [
        3.469446951953614e-18,
        2.7538735181131813e-17,
        1.3444106938820255e-17,
        1.0
      ],
      "translation": [
        0.10345686972141266,
        0.09636064618825912,
        0.12112156301736832
      ]
    },
    {
      "name": "l_squint_uJnt_033",
      "rotation": [
        0.0,
        -0.0,
        -4.203895392974451e-45,
        1.0
      ],
      "translation": [
        0.1438813954591751,
        -0.023787209764122963,
        0.1344049870967865
      ]
    },
    {
      "name": "r_ear_uJnt_034",
      "rotation": [
        -1.457167852169416e-16,
        8.08890650111036e-33,
        -5.551115123125783e-17,
        1.0
      ],
      "translation": [
        -0.16715799272060394,
        0.1467229425907135,
        -0.05952548235654831
      ]
    },
    {
      "children": [
        45
      ],
      "name": "r_eye00_uJnt_035",
      "rotation": [
        -1.739805673660333e-18,
        6.938046870959974e-18,
        8.131516293641283e-20,
        1.0
      ],
      "translation": [
        -0.0889170691370964,
        0.03959200158715248,
        0.041555412113666534
      ]
    },
    {
      "name": "r_eye_pupil00_uJnt_036",
      "rotation": [
        -1.7414997395548415e-18,
        6.938153163668687e-18,
        5.421010862427522e-20,
        1.0
      ],
      "translation": [
        -0.00212517729960382,
        -0.0007164764101617038,
        0.08242423832416534
      ]
    },
    {
      "name": "r_eyebrow_in_uJnt_037",
      "rotation": [
        -1.0408340855860843e-16,
        -8.326672684688674e-17,
        1.6653345369377348e-16,
        1.0
      ],
      "translation": [
        -0.07974689453840256,
        0.15413294732570648,
        0.14297811686992645
      ]
    },
    {
      "name": "r_eyebrow_out_uJnt_038",
      "rotation": [
        -6.938893903907228e-18,
        -1.925929944387236e-34,
        2.7755575615628914e-17,
        1.0
      ],
      "translation": [
        -0.14734598994255066,
        0.14444294571876526,
        0.09917311370372772
      ]
    },
    {
      "name": "r_eyelid_bottom00_uJnt_039",
      "rotation": [
        -1.3877787807814457e-17,
        -2.6454533008646308e-17,
        2.688821387764051e-17,
        1.0
      ],
      "translation": [
        -0.13059300184249878,
        0.003529912792146206,
        0.12246911972761154
      ]
    },
    {
      "name": "r_eyelid_top00_corr_uJnt_040",
      "rotation": [
        -1.0408340855860843e-17,
        -5.5077470362263625e-17,
        -2.168404551766162e-18,
        1.0
      ],
      "translation": [
        -0.1006379947066307,
        0.1060529500246048,
        0.12047811597585678
      ]
    },
    {
      "name": "r_eyelid_top00_uJnt_041",
      "rotation": [
        3.469446951953614e-18,
        -6.505213034913027e-19,
        1.474514954580286e-17,
        1.0
      ],
      "translation": [
        -0.1034570038318634,
        0.09636293351650238,
        0.1211211159825325
      ]
    },
    {
      "name": "r_squint_uJnt_042",
      "rotation": [
        6.0564249528014626e-18,
        -1.6081123173571313e-34,
        -2.6552171753790842e-17,
        1.0
      ],
      "translation": [
        -0.1438813954591751,
        -0.023787209764122963,
        0.1344049870967865
      ]
    },
    {
      "children": [
        53
      ],
      "name": "l_earHank_00_uJnt_043",
      "rotation": [
        -4.206704429243757e-17,
        -1.7211709488207383e-18,
        5.204170427930421e-17,
        1.0
      ],
      "translation": [
        0.16774998605251312,
        0.1868399977684021,
        -0.12307000160217285
      ]
    },
    {
      "name": "l_earHank_01_uJnt_044",
      "rotation": [
        -5.713745448998608e-17,
        5.553825628556996e-17,
        2.7755575615628914e-17,
        1.0
      ],
      "translation": [
        0.1808588057756424,
        0.013349355198442936,
        -0.2184983193874359
      ]
    },
    {
      "children": [
        55
      ],
      "name": "r_earHank_00_uJnt_045",
      "rotation": [
        3.198396739704483e-17,
        -1.1102230246251565e-16,
        -6.071532165918825e-18,
        1.0
      ],
      "translation": [
        -0.16774998605251312,
        0.1856488436460495,
        -0.11199188977479935
      ]
    },
    {
      "name": "r_earHank_01_uJnt_046",
      "rotation": [
        5.0306980803327406e-17,
        -1.1102230246251565e-16,
        -8.673618207064648e-18,
        1.0
      ],
      "translation": [
        -0.18085652589797974,
        0.01334918662905693,
        -0.21849557757377625
      ]
    },
    {
      "name": "c_nose_uJnt_047",
      "rotation": [
        0.0,
        -0.0,
        -4.203895392974451e-45,
        1.0
      ],
      "translation": [
        8.161643449966505e-08,
        0.08124294877052307,
        0.1890006959438324
      ]
    },
    {
      "name": "c_topTeeth_uJnt_048",
      "rotation": [
        1.3877787807814457e-17,
        -0.0,
        -4.203895392974451e-45,
        1.0
      ],
      "translation": [
        -1.9721522630525295e-31,
        0.04514351859688759,
        0.1394975185394287
      ]
    },
    {
      "name": "l_cheek_uJnt_049",
      "rotation": [
        -2.282715198385127e-42,
        -5.637851296924623e-17,
        -3.469446951953614e-18,
        1.0
      ],
      "translation": [
        0.14852584898471832,
        0.04523234814405441,
        0.06048250570893288
      ]
    },
    {
      "name": "l_smile_uJnt_050",
      "rotation": [
        -4.163336342344337e-17,
        -3.382710778154774e-17,
        -1.9081958235744878e-17,
        1.0
      ],
      "translation": [
        0.10368398576974869,
        0.04843262583017349,
        0.16534247994422913
      ]
    },
    {
      "name": "r_cheek_uJnt_051",
      "rotation": [
        -3.677613769070831e-16,
        -5.551115123125783e-17,
        2.7755578262606874e-16,
        1.0
      ],
      "translation": [
        -0.14852599799633026,
        0.04523199796676636,
        0.06048250198364258
      ]
    },
    {
      "name": "r_smile_uJnt_052",
      "rotation": [
        -2.7755575615628914e-17,
        -2.7755575615628914e-17,
        -7.703719777548943e-34,
        1.0
      ],
      "translation": [
        -0.10368399322032928,
        0.04843299835920334,
        0.16534200310707092
      ]
    },
    {
      "name": "c_spineDetail_chest_uJnt_053",
      "rotation": [
        -1.4387845995439703e-39,
        5.551115652521375e-16,
        2.220446049250313e-16,
        1.0
      ],
      "translation": [
        -1.9721522630525295e-31,
        -1.1102230246251565e-16,
        0.0
      ]
    },
    {
      "children": [
        64,
        80
      ],
      "name": "l_clavicle_uJnt_054",
      "rotation": [
        -8.142358315366138e-17,
        -1.734723475976807e-18,
        -1.4124740119480607e-34,
        1.0
      ],
      "translation": [
        0.01056858990341425,
        0.06429263204336166,
        -0.009201571345329285
      ]
    },
    {
      "children": [
        65,
        77,
        79
      ],
      "name": "l_arm_shoulder_uJnt_055",
      "rotation": [
        -4.9656459499836103e-17,
        3.469446951953614e-18,
        1.1102230246251565e-16,
        1.0
      ],
      "translation": [
        0.0767703652381897,
        -0.021747631952166557,
        -0.0016312520019710064
      ]
    },
    {
      "children": [
        66,
        67,
        76
      ],
      "name": "l_arm_elbow_uJnt_056",
      "rotation": [
        -7.32920668600201e-17,
        -6.071532165918825e-18,
        1.1102230246251565e-16,
        1.0
      ],
      "translation": [
        0.13025438785552979,
        -0.06630819290876389,
        -0.004175001755356789
      ]
    },
    {
      "name": "l_arm_elbow_roll_uJnt_057",
      "rotation": [
        3.469447282825859e-17,
        3.469447282825859e-17,
        2.7755575615628914e-17,
        1.0
      ],
      "translation": [
        0.05442670360207558,
        -0.02834474667906761,
        0.0062746754847466946
      ]
    },
    {
      "children": [
        68,
        70,
        72,
        74
      ],
      "name": "l_arm_wrist_uJnt_058",
      "rotation": [
        6.938894565651718e-17,
        -6.938893903907228e-18,
        1.3877789131303437e-16,
        1.0
      ],
      "translation": [
        0.10885340720415115,
        -0.056689485907554626,
        0.012549295090138912
      ]
    },
    {
      "children": [
        69
      ],
      "name": "l_fingersIndex_00_uJnt_059",
      "rotation": [
        -4.85722573273506e-17,
        -5.551115123125783e-17,
        1.1102230246251565e-16,
        1.0
      ],
      "translation": [
        0.0541081577539444,
        -0.017156722024083138,
        0.024280982092022896
      ]
    },
    {
      "name": "l_fingersIndex_01_uJnt_060",
      "rotation": [
        2.7755575615628914e-17,
        8.326672684688674e-17,
        8.326672684688674e-17,
        1.0
      ],
      "translation": [
        0.02350601926445961,
        -0.01148723904043436,
        0.010051374323666096
      ]
    },
    {
      "children": [
        71
      ],
      "name": "l_fingersMiddle_00_uJnt_061",
      "rotation": [
        -6.960577947356938e-17,
        -2.0494302020710674e-31,
        1.1102230246251565e-16,
        1.0
      ],
      "translation": [
        0.05781066417694092,
        -0.01949188858270645,
        -0.0025554578751325607
      ]
    },
    {
      "name": "l_fingersMiddle_01_uJnt_062",
      "rotation": [
        -7.253312533928025e-17,
        -8.673617379884035e-19,
        8.326672684688674e-17,
        1.0
      ],
      "translation": [
        0.024201011285185814,
        -0.009190388023853302,
        -0.00024063509772531688
      ]
    },
    {
      "children": [
        73
      ],
      "name": "l_fingersPinky_00_uJnt_063",
      "rotation": [
        3.469447282825859e-17,
        -5.551115123125783e-17,
        5.551115123125783e-17,
        1.0
      ],
      "translation": [
        0.05119948834180832,
        -0.019140059128403664,
        -0.030930399894714355
      ]
    },
    {
      "name": "l_fingersPinky_01_uJnt_064",
      "rotation": [
        6.938893903907228e-18,
        -2.7755575615628914e-17,
        8.326672684688674e-17,
        1.0
      ],
      "translation": [
        0.02024320885539055,
        -0.010007629171013832,
        -0.007534129079431295
      ]
    },
    {
      "children": [
        75
      ],
      "name": "l_fingersThumb_00_uJnt_065",
      "rotation": [
        -4.996003081417612e-16,
        -1.1102230246251565e-16,
        5.551115123125783e-17,
        1.0
      ],
      "translation": [
        0.023006143048405647,
        -0.016499100252985954,
        0.0288915503770113
      ]
    },
    {
      "name": "l_fingersThumb_01_uJnt_066",
      "rotation": [
        4.0245584642661925e-16,
        1.1102230246251565e-16,
        -1.249000770354403e-16,
        1.0
      ],
      "translation": [
        -0.00284653645940125,
        -0.019158419221639633,
        0.027841227129101753
      ]
    },
    {
      "name": "l_arm_elbow_uJnt_056_0"
    },
    {
      "children": [
        78
      ],
      "name": "l_arm_shoulder_roll_uJnt_067",
      "rotation": [
        8.716986128527946e-17,
        -7.80625481471502e-18,
        8.326672684688674e-17,
        1.0
      ],
      "translation": [
        0.0651271864771843,
        -0.03315410017967224,
        -0.002087473403662443
      ]
    },
    {
      "name": "l_arm_shoulder_roll_uJnt_067_0"
    },
    {
      "name": "l_arm_shoulder_uJnt_055_0"
    },
    {
      "name": "l_clavicle_uJnt_054_0"
    },
    {
      "children": [
        82,
        99
      ],
      "name": "r_clavicle_uJnt_068",
      "rotation": [
        -3.577867169202165e-18,
        -1.3010426069826053e-18,
        -2.710505431213761e-20,
        1.0
      ],
      "translation": [
        -0.010568598285317421,
        0.06429269909858704,
        -0.00920158438384533
      ]
    },
    {
      "children": [
        83,
        96,
        98
      ],
      "name": "r_arm_shoulder_uJnt_069",
      "rotation": [
        -1.3010426069826053e-17,
        -5.204170427930421e-18,
        -2.168404344971009e-19,
        1.0
      ],
      "translation": [
        -0.07677040249109268,
        -0.021747993305325508,
        -0.001631199731491506
      ]
    },
    {
      "children": [
        84,
        85,
        95
      ],
      "name": "r_arm_elbow_uJnt_070",
      "rotation": [
        -1.487679771039474e-12,
        2.9077955321366034e-12,
        2.3122958625956813e-13,
        1.0
      ],
      "translation": [
        -0.13025425374507904,
        -0.06630827486515045,
        -0.004173110239207745
      ]
    },
    {
      "name": "r_arm_elbow_roll_uJnt_071",
      "rotation": [
        -1.487679771039474e-12,
        2.9077937974131274e-12,
        2.313407711923565e-13,
        1.0
      ],
      "translation": [
        -0.05442676320672035,
        -0.028344707563519478,
        0.006273729261010885
      ]
    },
    {
      "children": [
        86,
        88,
        90,
        92,
        94
      ],
      "name": "r_arm_wrist_uJnt_072",
      "rotation": [
        -6.938893903907228e-18,
        -1.474514954580286e-17,
        1.6761765586625899e-16,
        1.0
      ],
      "translation": [
        -0.1088535413146019,
        -0.05668940395116806,
        0.012547403573989868
      ]
    },
    {
      "children": [
        87
      ],
      "name": "r_fingersIndex_00_uJnt_073",
      "rotation": [
        -8.326672684688674e-17,
        -5.204170427930421e-18,
        1.6479873021779667e-16,
        1.0
      ],
      "translation": [
        -0.05410819500684738,
        -0.017156319692730904,
        0.024280905723571777
      ]
    },
    {
      "name": "r_fingersIndex_01_uJnt_074",
      "rotation": [
        -9.020562075079397e-17,
        -1.0234868508263162e-16,
        -1.214306433183765e-17,
        1.0
      ],
      "translation": [
        -0.023505939170718193,
        -0.011487199924886227,
        0.010051339864730835
      ]
    },
    {
      "children": [
        89
      ],
      "name": "r_fingersMiddle_00_uJnt_075",
      "rotation": [
        1.0842021724855044e-19,
        -9.757818518393774e-19,
        1.3877789131303437e-16,
        1.0
      ],
      "translation": [
        -0.05781019479036331,
        -0.019491318613290787,
        -0.0025554937310516834
      ]
    },
    {
      "name": "r_fingersMiddle_01_uJnt_076",
      "rotation": [
        1.0842021724855044e-19,
        4.0389678347315804e-28,
        -2.775726968152342e-17,
        1.0
      ],
      "translation": [
        -0.024201184511184692,
        -0.0091904541477561,
        -0.00024063681485131383
      ]
    },
    {
      "children": [
        91
      ],
      "name": "r_fingersPinky_00_uJnt_077",
      "rotation": [
        3.469447282825859e-17,
        -4.2500725161431774e-17,
        1.205632815803881e-16,
        1.0
      ],
      "translation": [
        -0.05119919031858444,
        -0.01913931965827942,
        -0.030930442735552788
      ]
    },
    {
      "name": "r_fingersPinky_01_uJnt_078",
      "rotation": [
        -6.938893903907228e-18,
        3.382710778154774e-17,
        5.811323644522304e-17,
        1.0
      ],
      "translation": [
        -0.020243175327777863,
        -0.010007612407207489,
        -0.007534116506576538
      ]
    },
    {
      "children": [
        93
      ],
      "name": "r_fingersThumb_00_uJnt_079",
      "rotation": [
        -2.7755575615628914e-17,
        2.498001540708806e-16,
        -1.942890293094024e-16,
        1.0
      ],
      "translation": [
        -0.023006195202469826,
        -0.016498319804668427,
        0.028891505673527718
      ]
    },
    {
      "name": "r_fingersThumb_01_uJnt_080",
      "rotation": [
        -9.71445146547012e-17,
        2.0816681711721685e-17,
        -5.551115123125783e-17,
        1.0
      ],
      "translation": [
        0.0028465637005865574,
        -0.019158601760864258,
        0.027841493487358093
      ]
    },
    {
      "name": "r_addon_uJnt_081",
      "rotation": [
        0.0,
        -0.0,
        -4.157996609706014e-30,
        1.0
      ]
    },
    {
      "name": "r_arm_elbow_uJnt_070_0"
    },
    {
      "children": [
        97
      ],
      "name": "r_arm_shoulder_roll_uJnt_082",
      "rotation": [
        1.3010426069826053e-17,
        8.673618207064648e-18,
        -2.7484525072507537e-17,
        1.0
      ],
      "translation": [
        -0.06512712687253952,
        -0.03315414488315582,
        -0.0020865274127572775
      ]
    },
    {
      "name": "r_arm_shoulder_roll_uJnt_082_0"
    },
    {
      "name": "r_arm_shoulder_uJnt_069_0"
    },
    {
      "name": "r_clavicle_uJnt_068_0"
    },
    {
      "name": "c_spineDetail_00_uJnt_083",
      "rotation": [
        -1.4387845995439703e-39,
        5.551115652521375e-16,
        2.220446049250313e-16,
        1.0
      ],
      "translation": [
        0.0,
        1.1102230246251565e-16,
        0.0
      ]
    },
    {
      "name": "c_spineDetail_hip_uJnt_084",
      "rotation": [
        -1.4387845995439703e-39,
        5.551115652521375e-16,
        2.220446049250313e-16,
        1.0
      ]
    },
    {
      "children": [
        103
      ],
      "name": "c_tail_00_uJnt_085",
      "rotation": [
        -2.3303328896571643e-37,
        -5.551115652521375e-16,
        -8.132383655379272e-15,
        1.0
      ],
      "translation": [
        -2.070759876205156e-30,
        0.008184123784303665,
        -0.09234078973531723
      ]
    },
    {
      "children": [
        104
      ],
      "name": "c_tail_01_uJnt_086",
      "rotation": [
        -5.551115123125783e-17,
        -1.1102230246251565e-16,
        -8.132383655379272e-15,
        1.0
      ],
      "translation": [
        -1.8573363920010934e-16,
        -0.009814238175749779,
        -0.2453126162290573
      ]
    },
    {
      "name": "c_tail_02_uJnt_087",
      "rotation": [
        -5.551115123125783e-17,
        -5.551115123125783e-17,
        -8.909539772616881e-15,
        1.0
      ],
      "translation": [
        -1.4411681608019458e-17,
        -0.0011647709179669619,
        -0.17067252099514008
      ]
    },
    {
      "children": [
        106,
        114
      ],
      "name": "l_leg_thigh_uJnt_088",
      "rotation": [
        -1.3877787807814457e-17,
        0.0,
        -0.0,
        1.0
      ],
      "translation": [
        0.06189773976802826,
        -0.05029771104454994,
        -0.004201812203973532
      ]
    },
    {
      "children": [
        107,
        111,
        113
      ],
      "name": "l_leg_knee_uJnt_089",
      "rotation": [
        2.0816681711721685e-17,
        0.0,
        1.5407441024465825e-32,
        1.0
      ],
      "translation": [
        -5.551115123125783e-17,
        -0.18464700877666473,
        -0.014236983843147755
      ]
    },
    {
      "children": [
        108,
        110
      ],
      "name": "l_leg_ankle_uJnt_090",
      "rotation": [
        -8.671464102327775e-10,
        6.679989779436403e-42,
        -7.703720512232913e-33,
        1.0
      ],
      "translation": [
        7.632783294297951e-17,
        -0.1486239731311798,
        -0.023149916902184486
      ]
    },
    {
      "children": [
        109
      ],
      "name": "l_leg_toes_uJnt_091",
      "rotation": [
        -8.671466877885337e-10,
        -1.8746570855737403e-41,
        2.161904410906262e-32,
        1.0
      ],
      "translation": [
        -4.163336342344337e-17,
        -0.03496699035167694,
        0.058652233332395554
      ]
    },
    {
      "name": "l_leg_toes_uJnt_091_0"
    },
    {
      "name": "l_leg_ankle_uJnt_090_0"
    },
    {
      "children": [
        112
      ],
      "name": "l_leg_knee_roll_uJnt_092",
      "rotation": [
        5.551115123125783e-17,
        -0.0,
        -7.703720512232913e-33,
        1.0
      ],
      "translation": [
        4.163336342344337e-17,
        -0.0743119865655899,
        -0.011574981734156609
      ]
    },
    {
      "name": "l_leg_knee_roll_uJnt_092_0"
    },
    {
      "name": "l_leg_knee_uJnt_089_0"
    },
    {
      "children": [
        115
      ],
      "name": "l_leg_thigh_roll_uJnt_093",
      "rotation": [
        6.938893903907228e-18,
        0.0,
        1.5407441024465825e-32,
        1.0
      ],
      "translation": [
        -1.1102230246251565e-16,
        -0.09232348948717117,
        -0.007118515204638243
      ]
    },
    {
      "name": "l_leg_thigh_roll_uJnt_093_0"
    },
    {
      "children": [
        117,
        125,
        127
      ],
      "name": "r_leg_thigh_uJnt_094",
      "rotation": [
        -1.0408340855860843e-17,
        -5.898059818321144e-17,
        -6.138902156911795e-34,
        1.0
      ],
      "translation": [
        -0.061897702515125275,
        -0.05029749125242233,
        -0.004201784264296293
      ]
    },
    {
      "children": [
        118,
        122,
        124
      ],
      "name": "r_leg_knee_uJnt_095",
      "rotation": [
        3.469447282825859e-17,
        -5.551115123125783e-17,
        1.1102230246251565e-16,
        1.0
      ],
      "translation": [
        -3.469446951953614e-17,
        -0.1846594512462616,
        -0.014174876734614372
      ]
    },
    {
      "children": [
        119,
        121
      ],
      "name": "r_leg_ankle_uJnt_096",
      "rotation": [
        2.0816681711721685e-17,
        -6.245003851772015e-17,
        1.1102230246251565e-16,
        1.0
      ],
      "translation": [
        4.163336342344337e-17,
        -0.14862044155597687,
        -0.02321210876107216
      ]
    },
    {
      "children": [
        120
      ],
      "name": "r_leg_toes_uJnt_097",
      "rotation": [
        2.7755578262606874e-16,
        -5.551115123125783e-17,
        -1.3698179668190092e-32,
        1.0
      ],
      "translation": [
        6.938893903907228e-18,
        -0.034964337944984436,
        0.05864856019616127
      ]
    },
    {
      "name": "r_leg_toes_uJnt_097_0"
    },
    {
      "name": "r_leg_ankle_uJnt_096_0"
    },
    {
      "children": [
        123
      ],
      "name": "r_leg_knee_roll_uJnt_098",
      "rotation": [
        1.1796119636642288e-16,
        -6.245003851772015e-17,
        5.551115123125783e-17,
        1.0
      ],
      "translation": [
        8.326672684688674e-17,
        -0.07431022077798843,
        -0.011606051586568356
      ]
    },
    {
      "name": "r_leg_knee_roll_uJnt_098_0"
    },
    {
      "name": "r_leg_knee_uJnt_095_0"
    },
    {
      "children": [
        126
      ],
      "name": "r_leg_thigh_roll_uJnt_099",
      "rotation": [
        -9.71445146547012e-17,
        -5.551115123125783e-17,
        5.551115123125783e-17,
        1.0
      ],
      "translation": [
        2.7755575615628914e-17,
        -0.0923297256231308,
        -0.00708743603900075
      ]
    },
    {
      "name": "r_leg_thigh_roll_uJnt_099_0"
    },
    {
      "name": "r_leg_thigh_uJnt_094_0"
    },
    {
      "mesh": 0,
      "name": "Object_128",
      "skin": 0
    },
    {
      "mesh": 1,
      "name": "Object_129",
      "skin": 0
    },
    {
      "mesh": 2,
      "name": "Object_130",
      "skin": 0
    }
  ],
  "samplers": [
    {
      "magFilter": 9729,
      "minFilter": 9987,
      "wrapS": 10497,
      "wrapT": 10497
    }
  ],
  "scene": 0,
  "scenes": [
    {
      "name": "Sketchfab_Scene",
      "nodes": [
        0
      ]
    }
  ],
  "skins": [
    {
      "inverseBindMatrices": 12,
      "joints": [
        8,
        9,
        10,
        11,
        12,
        13,
        14,
        15,
        16,
        17,
        18,
        19,
        20,
        21,
        22,
        23,
        24,
        25,
        26,
        27,
        28,
        29,
        30,
        31,
        32,
        33,
        34,
        35,
        36,
        37,
        38,
        39,
        40,
        41,
        42,
        43,
        44,
        45,
        46,
        47,
        48,
        49,
        50,
        51,
        52,
        53,
        54,
        55,
        56,
        57,
        58,
        59,
        60,
        61,
        62,
        63,
        64,
        65,
        66,
        67,
        68,
        69,
        70,
        71,
        72,
        73,
        74,
        75,
        76,
        77,
        78,
        79,
        80,
        81,
        82,
        83,
        84,
        85,
        86,
        87,
        88,
        89,
        90,
        91,
        92,
        93,
        94,
        95,
        96,
        97,
        98,
        99,
        100,
        101,
        102,
        103,
        104,
        105,
        106,
        107,
        108,
        109,
        110,
        111,
        112,
        113,
        114,
        115,
        116,
        117,
        118,
        119,
        120,
        121,
        122,
        123,
        124,
        125,
        126,
        127
      ],
      "skeleton": 8
    }
  ],
  "textures": [
    {
      "sampler": 0,
      "source": 0
    },
    {
      "sampler": 0,
      "source": 1
    },
    {
      "sampler": 0,
      "source": 2
    }
  ]
}
